<?xml version="1.0" standalone="no"?>
<!DOCTYPE svg PUBLIC "-//W3C//DTD SVG 20010904//EN"
 "http://www.w3.org/TR/2001/REC-SVG-20010904/DTD/svg10.dtd">
<svg version="1.0" xmlns="http://www.w3.org/2000/svg"
 width="196.000000pt" height="196.000000pt" viewBox="0 0 196.000000 196.000000"
 preserveAspectRatio="xMidYMid meet">
<metadata>
Created by potrace 1.11, written by Peter Selinger 2001-2013
</metadata>
<g transform="translate(0.000000,196.000000) scale(0.100000,-0.100000)"
fill="#000000" stroke="none">
<path d="M760 1880 c-240 -39 -481 -167 -592 -315 -67 -89 -122 -223 -143
-345 -3 -19 -9 -55 -13 -80 -10 -67 -7 -257 7 -320 29 -135 97 -262 174 -323
51 -42 128 -48 225 -18 80 24 125 27 140 8 18 -22 28 -90 20 -132 -18 -84 -20
-135 -8 -184 21 -90 69 -107 204 -76 88 20 268 17 366 -7 91 -22 122 -22 159
-3 53 27 64 94 47 278 -11 129 20 148 169 102 119 -37 168 -32 250 27 44 32
76 79 123 178 55 119 64 157 68 295 2 108 -1 149 -22 245 -13 63 -28 124 -33
135 -5 11 -17 40 -27 64 -73 174 -303 359 -530 426 -141 42 -173 46 -349 50
-99 2 -205 0 -235 -5z m755 -380 c112 -43 177 -100 229 -202 20 -40 43 -97 51
-127 17 -66 13 -173 -10 -225 -28 -66 -152 -176 -198 -176 -9 0 -52 17 -95 38
-42 22 -107 46 -144 56 -149 36 -251 106 -285 194 -21 56 -24 231 -4 299 17
61 68 122 128 154 49 25 60 27 147 24 77 -2 109 -8 181 -35z m-750 -7 c101
-54 146 -137 151 -278 5 -128 -22 -209 -88 -271 -42 -40 -72 -55 -207 -103
-61 -21 -131 -53 -157 -70 -60 -39 -94 -39 -151 0 -143 99 -190 219 -147 381
23 91 72 187 119 234 46 45 142 96 226 118 79 21 204 15 254 -11z m146 -807
c0 -11 2 -38 5 -58 9 -73 11 -243 3 -278 -11 -47 -44 -73 -86 -67 -63 11 -103
77 -98 161 3 56 67 193 114 243 33 36 61 35 62 -1z m215 -28 c86 -117 114
-208 88 -283 -17 -52 -56 -85 -98 -85 -39 0 -60 21 -74 71 -11 42 -10 328 1
347 16 24 38 11 83 -50z"/>
</g>
</svg>
