<?xml version="1.0" encoding="UTF-8"?>
<svg enable-background="new 0 0 41.301 41.301" version="1.1" viewBox="0 0 41.301 41.301" xml:space="preserve" xmlns="http://www.w3.org/2000/svg">
<path d="m20.642 0c5.698 0 10.857 2.317 14.602 6.047 3.73 3.746 6.047 8.905 6.047 14.603s-2.317 10.857-6.047 14.603c-3.746 3.73-8.904 6.047-14.602 6.047s-10.856-2.317-14.586-6.047c-3.746-3.746-6.048-8.904-6.048-14.603 0-5.698 2.301-10.857 6.047-14.603 3.731-3.73 8.889-6.047 14.587-6.047zm10.524 19.523c0.619 0 1.111 0.508 1.111 1.127s-0.492 1.127-1.111 1.127h-10.524c-0.413 0-0.778-0.238-0.968-0.571l-0.016-0.016-0.016-0.032v-0.016l-0.016-0.032-0.016-0.032v-0.016l-0.016-0.032-0.016-0.016v-0.032l-0.016-0.032v-0.016l-0.016-0.032v-0.064l-0.016-0.016v-13.616c0-0.619 0.492-1.111 1.111-1.111s1.127 0.492 1.127 1.111v12.317h9.398zm2.491-11.888c-3.333-3.333-7.936-5.381-13.015-5.381s-9.682 2.047-13.015 5.381c-3.317 3.333-5.381 7.936-5.381 13.015s2.063 9.682 5.381 13.016c3.333 3.333 7.936 5.381 13.015 5.381s9.682-2.048 13.015-5.381 5.397-7.936 5.397-13.016c0-5.079-2.063-9.682-5.397-13.015z" fill="#fff"/>
</svg>