<?xml version="1.0" encoding="UTF-8"?>
<svg version="1.1" viewBox="0 0 512 512" xmlns="http://www.w3.org/2000/svg">
<path d="m222.89 388h51.491c4.418 0 8-3.582 8-8v-115.91h26.751c4.101 0 7.538-3.101 7.958-7.18l4.51-43.772c0.232-2.252-0.501-4.498-2.019-6.179-1.517-1.682-3.675-2.641-5.939-2.641h-31.261v-17.73c0-3.662 1.159-3.936 2.928-3.936h27.682c4.418 0 8-3.582 8-8v-42.5c0-4.406-3.562-7.982-7.968-8l-38.177-0.155c-26.752 0-41.029 11.77-48.295 21.643-10.146 13.787-11.661 29.941-11.661 38.343v20.334h-16.489c-4.418 0-8 3.582-8 8v43.772c0 4.418 3.582 8 8 8h16.489v115.91c0 4.418 3.581 8 8 8zm-16.49-139.91v-27.772h16.489c4.418 0 8-3.582 8-8v-28.334c0-5.185 0.833-18.376 8.547-28.86 7.386-10.037 19.3-15.126 35.376-15.126l30.177 0.122v26.533h-19.682c-9.421 0-18.928 6.164-18.928 19.936v25.73c0 4.418 3.582 8 8 8h30.395l-2.862 27.772h-27.533c-4.418 0-8 3.582-8 8v115.91h-35.491v-115.91c0-4.418-3.582-8-8-8h-16.488z" fill="#fff"/>
</svg>
