<?xml version="1.0" encoding="UTF-8"?>
<svg version="1.1" viewBox="0 0 410 410" xmlns="http://www.w3.org/2000/svg">
<path d="m349.62 60.386c-38.679-38.683-90.113-59.988-144.82-59.988s-106.13 21.305-144.81 59.988c-38.683 38.684-59.988 90.11-59.988 144.81 0 54.711 21.305 106.14 59.988 144.82 38.68 38.68 90.11 59.981 144.81 59.981 54.707 0 106.14-21.301 144.82-59.981 38.68-38.68 59.985-90.109 59.985-144.82 0-54.703-21.305-106.13-59.985-144.81zm-9.051 280.58c-36.261 36.262-84.476 56.231-135.76 56.231-51.285 0-99.5-19.969-135.76-56.231-36.266-36.261-56.238-84.48-56.238-135.77 0-51.281 19.972-99.496 56.238-135.76s84.481-56.238 135.76-56.238c51.285 0 99.5 19.972 135.76 56.238 36.262 36.262 56.235 84.477 56.235 135.76 0 51.293-19.973 99.508-56.235 135.77z" fill="#fff"/>
<path d="m258.59 102.52h-107.18c-27.176 0-49.285 22.11-49.285 49.286v107.18c0 27.177 22.109 49.286 49.285 49.286h107.18c27.176 0 49.284-22.109 49.284-49.286v-107.18c0-27.176-22.108-49.286-49.284-49.286zm36.308 156.46c0 20.02-16.288 36.309-36.308 36.309h-107.18c-20.019 0-36.305-16.289-36.305-36.309v-107.18c0-20.019 16.287-36.305 36.305-36.305h107.18c20.02 0 36.308 16.287 36.308 36.305v107.18z" fill="#fff"/>
<path d="m262.5 140.13c-4.358 0-7.904 3.545-7.904 7.901s3.546 7.9 7.904 7.9c4.356 0 7.9-3.544 7.9-7.9s-3.544-7.901-7.9-7.901z" fill="#fff"/>
<path d="m205 154.97c-27.806 0-50.428 22.622-50.428 50.428 0 27.808 22.622 50.432 50.428 50.432 27.808 0 50.432-22.624 50.432-50.432 0-27.806-22.624-50.428-50.432-50.428zm0 87.884c-20.652 0-37.453-16.803-37.453-37.456 0-20.648 16.801-37.446 37.453-37.446 20.65 0 37.449 16.798 37.449 37.446 1e-3 20.653-16.799 37.456-37.449 37.456z" fill="#fff"/>
</svg>
