<?xml version="1.0" encoding="UTF-8"?>
<svg enable-background="new 0 0 29.731 29.731" version="1.1" viewBox="0 0 29.731 29.731" xml:space="preserve" xmlns="http://www.w3.org/2000/svg">
	<path d="m23.895 29.731c-1.237 0-2.731-0.31-4.374-0.93-3.602-1.358-7.521-4.042-11.035-7.556-3.515-3.515-6.199-7.435-7.558-11.037-1.235-3.275-1.238-5.963-7e-3 -7.193 0.177-0.177 0.357-0.367 0.543-0.563 1.123-1.181 2.392-2.51 4.074-2.45 1.159 0.048 2.282 0.768 3.432 2.199 3.398 4.226 1.866 5.732 0.093 7.478l-0.313 0.31c-0.29 0.29-0.838 1.633 4.26 6.731 1.664 1.664 3.083 2.882 4.217 3.619 0.714 0.464 1.991 1.166 2.515 0.642l0.315-0.318c1.744-1.769 3.25-3.296 7.473 0.099 1.431 1.15 2.15 2.272 2.198 3.433 0.069 1.681-1.27 2.953-2.452 4.075-0.195 0.186-0.385 0.366-0.562 0.542-0.611 0.612-1.588 0.919-2.819 0.919zm-18.477-28.731c-1.195 0-2.274 1.136-3.229 2.141-0.192 0.202-0.378 0.398-0.561 0.581-0.917 0.916-0.824 3.323 0.236 6.134 1.31 3.472 3.913 7.266 7.33 10.683 3.416 3.415 7.208 6.018 10.681 7.327 2.811 1.062 5.218 1.152 6.133 0.237 0.183-0.183 0.379-0.369 0.581-0.56 1.027-0.976 2.192-2.082 2.141-3.309-0.035-0.843-0.649-1.75-1.825-2.695-3.519-2.83-4.503-1.831-6.135-0.176l-0.32 0.323c-0.78 0.781-2.047 0.608-3.767-0.51-1.193-0.776-2.667-2.038-4.379-3.751-4.231-4.23-5.584-6.819-4.26-8.146l0.319-0.315c1.659-1.632 2.66-2.617-0.171-6.138-0.947-1.175-1.853-1.789-2.696-1.825-0.026-1e-3 -0.052-1e-3 -0.078-1e-3z" fill="#fff"/>
</svg>
