<?xml version="1.0" encoding="UTF-8"?>
<svg version="1.1" viewBox="0 0 512 512" xmlns="http://www.w3.org/2000/svg">
<path d="M437.022 74.984 C388.67 26.63 324.381 0 256 0 187.624 0 123.338 26.63 74.984 74.984 26.63 123.338 0 187.624 0 256 0 324.388 26.63 388.678 74.984 437.028 123.335 485.375 187.621 512 256 512 324.385 512 388.673 485.375 437.021 437.028 485.372 388.679 512 324.389 512 256 512 187.623 485.372 123.336 437.022 74.984 Z M425.708 425.714 C380.381 471.039 320.111 496 256 496 191.894 496 131.626 471.039 86.297 425.714 40.965 380.386 16 320.113 16 256 16 191.898 40.965 131.63 86.297 86.297 131.63 40.965 191.898 16 256 16 320.108 16 380.378 40.965 425.708 86.297 471.037 131.628 496 191.896 496 256 496 320.115 471.037 380.387 425.708 425.714 Z" fill="#fff"/>
<path d="m398.66 194.76c1.975-2.959 1.757-6.867-0.533-9.59-2.29-2.722-6.102-3.604-9.357-2.167-0.204 0.09-0.408 0.18-0.612 0.268 1.881-3.375 3.437-6.949 4.63-10.676 1.014-3.166-0.035-6.628-2.635-8.698-2.6-2.071-6.209-2.317-9.067-0.622-8.072 4.792-16.708 8.314-25.726 10.498-10.798-9.778-25.002-15.307-39.646-15.307-32.47 0-58.887 26.402-58.887 58.855 0 0.928 0.021 1.854 0.063 2.776-34.859-4.249-67.035-21.913-89.417-49.384-1.658-2.035-4.206-3.128-6.826-2.922-2.617 0.205-4.967 1.68-6.288 3.948-5.214 8.949-7.97 19.185-7.97 29.602 0 9.952 2.486 19.542 7.052 28.008-1.225 0.081-2.435 0.444-3.528 1.088-2.443 1.438-3.942 4.06-3.942 6.895v0.636c0 17.624 7.908 33.796 20.616 44.719-0.275 0.237-0.536 0.495-0.78 0.772-1.859 2.112-2.473 5.045-1.615 7.725 5.467 17.082 18.25 30.333 34.264 36.714-13.001 6.537-27.355 9.933-42.315 9.933-3.772 0-7.544-0.216-11.211-0.643-3.698-0.431-7.206 1.748-8.458 5.255-1.253 3.507 0.08 7.414 3.214 9.425 24.61 15.785 53.074 24.128 82.315 24.128 57.454 0 93.424-27.125 113.48-49.88 24.968-28.326 39.288-65.827 39.288-102.89 0-0.914-7e-3 -1.804-0.022-2.676 9.302-7.272 17.333-15.931 23.911-25.79zm-36.724 15.406c-2.198 1.585-3.444 4.176-3.311 6.883 0.097 1.97 0.145 3.99 0.145 6.177 0 33.221-12.863 66.866-35.29 92.31-17.878 20.282-49.996 44.46-101.48 44.46-15.75 0-31.25-2.705-45.896-7.938 17.51-3.161 33.891-10.506 48.153-21.695 2.662-2.088 3.723-5.626 2.648-8.835-1.075-3.208-4.052-5.394-7.436-5.458-14.083-0.265-26.831-7.364-34.527-18.535 4.015-0.244 8.006-0.896 11.91-1.951 3.583-0.967 6.029-4.272 5.91-7.981s-2.774-6.849-6.411-7.584c-15.937-3.219-28.377-15.183-32.716-30.254 4.279 1.13 8.688 1.784 13.119 1.932 3.577 0.122 6.79-2.146 7.883-5.548 1.094-3.402-0.203-7.118-3.175-9.102-11.942-7.97-19.071-21.318-19.071-35.707 0-3.646 0.462-7.259 1.363-10.751 26.808 27.682 63.308 44.387 101.99 46.315 2.526 0.125 4.93-0.936 6.54-2.863 1.609-1.928 2.22-4.5 1.649-6.946-0.735-3.149-1.108-6.438-1.108-9.775 0-23.63 19.239-42.855 42.887-42.855 11.804 0 23.217 4.931 31.314 13.527 1.884 2 4.664 2.894 7.358 2.367 3.031-0.593 6.028-1.312 8.986-2.156-1.483 1.179-3.052 2.266-4.696 3.25-3.236 1.938-4.679 5.872-3.463 9.442 1.216 3.571 4.757 5.809 8.506 5.367 1.303-0.153 2.602-0.329 3.897-0.529-1.834 1.545-3.729 3.023-5.683 4.433z" fill="#fff"/>
</svg>
