<?xml version="1.0" encoding="UTF-8"?>
<svg version="1.1" viewBox="0 0 512 512" xmlns="http://www.w3.org/2000/svg">
<path d="M437.022 74.984 C388.67 26.63 324.381 0 256 0 187.624 0 123.338 26.63 74.984 74.984 26.63 123.338 0 187.624 0 256 0 324.388 26.63 388.678 74.984 437.028 123.335 485.375 187.621 512 256 512 324.385 512 388.673 485.375 437.021 437.028 485.372 388.679 512 324.389 512 256 512 187.623 485.372 123.336 437.022 74.984 Z M425.708 425.714 C380.381 471.039 320.111 496 256 496 191.894 496 131.626 471.039 86.297 425.714 40.965 380.386 16 320.113 16 256 16 191.898 40.965 131.63 86.297 86.297 131.63 40.965 191.898 16 256 16 320.108 16 380.378 40.965 425.708 86.297 471.037 131.628 496 191.896 496 256 496 320.115 471.037 380.387 425.708 425.714 Z" fill="#fff"/>
<path d="m404.5 306.93c-7.097-8.505-15.115-16.099-22.869-23.443-2.725-2.581-5.544-5.251-8.259-7.901l-2e-3 -2e-3c-3.651-3.561-5.439-6.089-5.625-7.956-0.184-1.836 1.07-4.559 3.955-8.583 4.313-6.054 8.911-12.118 13.359-17.982 3.953-5.212 8.04-10.603 11.958-16.024l0.88-1.217c7.643-10.579 15.546-21.518 19.781-34.849 1.21-3.822 2.466-9.478-0.564-14.444s-8.649-6.439-12.609-7.113c-1.934-0.331-3.769-0.358-5.477-0.358l-49.58-0.044c-8.572-0.143-14.519 3.92-17.76 12.079-2.593 6.516-5.657 14.068-9.205 21.232-6.79 13.83-15.418 29.759-27.923 43.03l-0.555 0.592c-0.852 0.908-2.243 2.394-2.957 2.735-1.355-0.851-2.918-5.72-2.847-8.271 2e-3 -0.063 3e-3 -0.125 3e-3 -0.188l-0.044-57.289c0-0.291-0.02-0.582-0.059-0.871-1.112-8.173-3.28-16.367-16.216-18.92-0.415-0.082-0.837-0.123-1.258-0.123h-51.575c-9.703 0-14.835 4.444-18.95 9.261-1.191 1.405-4.355 5.134-2.743 9.693 1.631 4.613 6.492 5.533 8.087 5.835 5.621 1.067 8.527 4.244 9.427 10.317 1.779 11.799 1.997 24.422 0.687 39.705-0.365 4.103-1.044 7.222-2.14 9.815-0.304 0.718-0.57 1.163-0.756 1.425-0.297-0.12-0.759-0.349-1.399-0.787-3.95-2.702-6.926-6.904-9.804-10.965-11.497-16.233-21.168-34.161-29.569-54.816-3.459-8.465-9.963-13.192-18.3-13.315-15.885-0.264-30.577-0.258-44.899 0.021-6.755 0.117-11.493 2.243-14.082 6.321-2.593 4.085-2.498 9.294 0.283 15.484 19.879 44.205 37.929 76.362 58.524 104.27 14.502 19.647 29.1 33.285 45.94 42.92 17.693 10.123 37.647 15.084 60.797 15.083 2.632 0 5.311-0.064 8.024-0.194 14.283-0.65 20.094-6.331 20.728-20.241 0.355-7.352 1.174-13.308 4.012-18.482 0.794-1.448 1.69-2.42 2.396-2.597 0.751-0.188 2.082 0.272 3.562 1.233 2.707 1.758 5.037 4.141 6.953 6.233 1.943 2.127 3.905 4.323 5.805 6.447 4.042 4.522 8.221 9.199 12.601 13.66 9.904 10.096 21.322 14.726 33.95 13.756l45.374 0.021h3e-3c0.144 0 0.288-4e-3 0.432-0.014 5.233-0.348 9.758-3.246 12.416-7.951 3.199-5.666 3.151-12.843-0.132-19.206-3.426-6.615-7.871-12.309-11.779-17.021zm0.593 29.836c-0.626 1.108-1.398 1.31-1.796 1.359l-45.364-0.021h-5e-3c-0.179 0-0.358 7e-3 -0.536 0.022-8.937 0.744-16.534-2.397-23.879-9.885-4.167-4.245-8.244-8.806-12.187-13.217-1.921-2.149-3.907-4.372-5.903-6.557-2.475-2.703-5.535-5.809-9.466-8.362-5.885-3.82-10.763-3.705-13.817-2.935-3.022 0.761-7.319 2.934-10.616 8.952-4.272 7.787-5.215 16.187-5.598 24.122-0.222 4.853-1.043 6.135-1.386 6.461-0.449 0.427-1.95 1.177-6.96 1.406-24.072 1.132-44.273-3.179-61.767-13.188-15.218-8.707-28.544-21.214-41.936-39.357-20.025-27.132-37.644-58.553-57.128-101.88-0.706-1.57-0.924-2.549-0.987-3.074 0.497-0.163 1.468-0.378 3.171-0.409 14.177-0.275 28.715-0.282 44.457-0.02 2.155 0.032 4.609 0.679 6.467 5.226 8.777 21.582 18.916 40.364 30.998 57.422 3.208 4.528 7.201 10.163 13.069 14.178 5.375 3.681 9.737 3.505 12.45 2.71 2.715-0.796 6.482-3.007 9.02-9.015 1.637-3.873 2.626-8.233 3.117-13.743 1.399-16.347 1.151-29.937-0.781-42.757-1.362-9.184-6.104-15.819-13.574-19.207 1.326-0.691 2.821-0.979 4.897-0.979h50.901c2.863 0.642 3.43 1.397 3.625 1.655 0.824 1.097 1.296 3.691 1.584 5.718l0.043 56.761c-0.114 5.441 2.53 17.509 11.534 20.818 0.074 0.028 0.149 0.053 0.223 0.077 8.198 2.679 13.62-3.108 16.531-6.217l0.518-0.551c13.698-14.539 22.922-31.526 30.129-46.205 3.756-7.58 6.937-15.42 9.626-22.179 1.346-3.389 2.571-3.948 5.493-3.886 0.041 2e-3 0.08 2e-3 0.121 2e-3l49.643 0.044c1.155 0 2.36 0.013 3.295 0.173 2.365 0.403 3.34 0.893 3.661 1.097 0.033 0.376 0.025 1.459-0.69 3.72-3.601 11.336-10.56 20.967-17.927 31.164l-0.88 1.219c-3.828 5.297-7.87 10.626-11.778 15.781-4.505 5.939-9.162 12.08-13.578 18.278-9.439 13.171-8.61 21.911 3.171 33.402 2.784 2.718 5.637 5.421 8.398 8.035 7.826 7.413 15.218 14.414 21.816 22.32 3.453 4.163 7.368 9.164 10.222 14.674 1.489 2.885 1.123 5.491 0.359 6.846z" fill="#fff"/>
</svg>
