<?xml version="1.0" encoding="UTF-8"?>
<svg version="1.1" viewBox="0 0 512 512" xmlns="http://www.w3.org/2000/svg">
<path d="M437.022 74.984 C388.67 26.63 324.381 0 256 0 187.624 0 123.338 26.63 74.984 74.984 26.63 123.338 0 187.624 0 256 0 324.388 26.63 388.678 74.984 437.028 123.335 485.375 187.621 512 256 512 324.385 512 388.673 485.375 437.021 437.028 485.372 388.679 512 324.389 512 256 512 187.623 485.372 123.336 437.022 74.984 Z M425.708 425.714 C380.381 471.039 320.111 496 256 496 191.894 496 131.626 471.039 86.297 425.714 40.965 380.386 16 320.113 16 256 16 191.898 40.965 131.63 86.297 86.297 131.63 40.965 191.898 16 256 16 320.108 16 380.378 40.965 425.708 86.297 471.037 131.628 496 191.896 496 256 496 320.115 471.037 380.387 425.708 425.714 Z" fill="#fff"/>
<path d="m393.81 199.21c-0.297-2.237-3.165-22.123-12.481-32.244-11.127-12.384-23.789-13.666-29.877-14.283-0.531-0.054-1.019-0.103-1.458-0.156-0.12-0.015-0.239-0.027-0.359-0.036-36.754-2.849-92.235-2.882-92.792-2.882h-0.124c-0.556 0-56.038 0.033-92.784 2.882-0.12 9e-3 -0.24 0.021-0.359 0.036-0.438 0.054-0.926 0.103-1.458 0.156-6.086 0.616-18.742 1.897-29.876 14.282-9.308 10.117-12.184 30.004-12.481 32.242-6e-3 0.044-0.011 0.089-0.017 0.133-0.11 0.947-2.689 23.462-2.689 46.399v21.314c0 22.953 2.579 45.46 2.689 46.407 5e-3 0.043 0.011 0.087 0.016 0.131 0.297 2.237 3.166 22.118 12.486 32.224 10.304 11.453 23.351 13.129 30.365 14.031 1.235 0.159 2.302 0.296 3.029 0.441 0.248 0.049 0.498 0.087 0.75 0.113 21.2 2.171 87.505 2.839 90.409 2.867 0.557-1e-3 56.085-0.132 92.828-2.947 0.136-0.01 0.271-0.024 0.405-0.042 0.452-0.058 0.957-0.109 1.507-0.167 6.074-0.635 18.705-1.955 29.789-14.292 9.309-10.104 12.184-29.979 12.481-32.216 6e-3 -0.044 0.011-0.089 0.017-0.134 0.11-0.947 2.688-23.461 2.689-46.406v-21.315c0-22.945-2.579-45.459-2.689-46.407-5e-3 -0.044-0.011-0.087-0.016-0.131zm-13.296 67.853c0 21.399-2.42 43.136-2.575 44.499-0.602 4.445-3.392 18.033-8.397 23.436-0.03 0.032-0.06 0.065-0.089 0.098-6.977 7.786-14.56 8.578-19.578 9.103-0.6 0.063-1.155 0.122-1.661 0.184-36.146 2.754-90.895 2.884-91.352 2.886-0.678-7e-3 -67.638-0.68-88.505-2.75-1.154-0.212-2.398-0.372-3.707-0.541-5.992-0.77-14.199-1.825-20.538-8.893l-0.09-0.099c-4.448-4.797-7.503-16.895-8.394-23.436-0.158-1.395-2.575-23.106-2.575-44.496v-21.314c0-21.4 2.422-43.145 2.575-44.493 0.602-4.449 3.394-18.048 8.401-23.464 0.027-0.03 0.055-0.06 0.082-0.09 7.008-7.814 14.596-8.582 19.617-9.091 0.58-0.059 1.118-0.114 1.61-0.172 36.127-2.788 90.83-2.821 91.379-2.821h0.124c0.549 0 55.252 0.033 91.387 2.821 0.491 0.058 1.03 0.113 1.61 0.172 5.023 0.508 12.614 1.277 19.614 9.088 0.029 0.032 0.058 0.063 0.086 0.095 4.45 4.808 7.506 16.91 8.4 23.466 0.158 1.393 2.575 23.113 2.575 44.496l1e-3 21.316z" fill="#fff"/>
<path d="m310.36 249.58l-82.356-49.415c-2.472-1.482-5.549-1.521-8.058-0.102-2.508 1.42-4.059 4.079-4.059 6.961v98.829c0 2.882 1.55 5.542 4.059 6.961 1.224 0.693 2.583 1.039 3.941 1.039 1.426 0 2.851-0.381 4.116-1.14l82.356-49.415c2.409-1.446 3.884-4.05 3.884-6.86s-1.473-5.413-3.883-6.858zm-78.472 42.145v-70.57l58.808 35.285-58.808 35.285z" fill="#fff"/>
</svg>
